<svg xmlns="http://www.w3.org/2000/svg" xmlns:xlink="http://www.w3.org/1999/xlink" width="400" height="440" viewBox="0 0 400 440" role="img" aria-labelledby="asset-title"><title id="asset-title">guest_fox_neutral</title><defs><radialGradient id="lampGlow"><stop stop-color="#FFD777" stop-opacity=".5"/><stop offset="1" stop-color="#FFD777" stop-opacity="0"/></radialGradient><linearGradient id="wall" x2="0" y2="1"><stop stop-color="#EBD6AC"/><stop offset="1" stop-color="#CBA66F"/></linearGradient><linearGradient id="copper" x2="1" y2="0"><stop stop-color="#A85E34"/><stop offset=".5" stop-color="#E8A265"/><stop offset="1" stop-color="#BC7544"/></linearGradient><filter id="shadow" x="-20%" y="-20%" width="140%" height="150%"><feDropShadow dx="0" dy="5" stdDeviation="0" flood-color="#38291F" flood-opacity=".13"/></filter></defs><g id="leg-left"><path d="M167 319L165 375" fill="none" stroke="#211B16" stroke-width="18" stroke-linecap="round" stroke-linejoin="round" /><path d="M167 319L165 375" fill="none" stroke="#BE7037" stroke-width="11" stroke-linecap="round" stroke-linejoin="round" /><path d="M158 372L173 374L195 389L179 392L168 388L158 394L144 389Z" fill="#504631" stroke="#211B16" stroke-width="3" stroke-linecap="round" stroke-linejoin="round" /></g><g id="leg-right"><path d="M227 319L225 375" fill="none" stroke="#211B16" stroke-width="18" stroke-linecap="round" stroke-linejoin="round" /><path d="M227 319L225 375" fill="none" stroke="#BE7037" stroke-width="11" stroke-linecap="round" stroke-linejoin="round" /><path d="M218 372L233 374L255 389L239 392L228 388L218 394L204 389Z" fill="#504631" stroke="#211B16" stroke-width="3" stroke-linecap="round" stroke-linejoin="round" /></g><g id="tail"><path d="M240 294Q297 309 303 250Q353 326 266 339Z" fill="#BE7037" stroke="#211B16" stroke-width="4" stroke-linecap="round" stroke-linejoin="round" /></g><g id="torso"><path d="M148 221L163 211L190 221L230 213L248 229L262 327L218 341L197 334L163 342L141 330Z" fill="#476D78" stroke="#211B16" stroke-width="4" stroke-linecap="round" stroke-linejoin="round" /><path d="M230 219L243 305L223 338L262 327L248 229Z" fill="#303D32" stroke="none" stroke-width="0" stroke-linecap="round" stroke-linejoin="round" /><path d="M159 221L172 243L232 240L235 220" fill="none" stroke="#D9C689" stroke-width="5" stroke-linecap="round" stroke-linejoin="round" /><rect x="179" y="276" width="40" height="29" rx="4" fill="#FFF1CD" stroke="#211B16" stroke-width="2" /><path d="M152 260L158 320M245 258L244 313" fill="none" stroke="#BCAC80" stroke-width="2" stroke-linecap="round" stroke-linejoin="round" /></g><g id="arm-left"><path d="M150 238Q112 257 116 302" fill="none" stroke="#211B16" stroke-width="24" stroke-linecap="round" stroke-linejoin="round" /><path d="M150 238Q112 257 116 302" fill="none" stroke="#476D78" stroke-width="16" stroke-linecap="round" stroke-linejoin="round" /><g transform="translate(113 310) scale(0.67)"><g id="palm" transform="translate(0 0) scale(-1 1)"><path d="M-10 2Q-24 -2 -22 -10Q-20 -16 -14 -10L-5 -4L-10 -24Q-10 -31 -4 -29L4 -9L3 -30Q4 -36 9 -32L13 -9L18 -27Q21 -32 25 -27L23 -7L31 -18Q37 -20 36 -13L26 9Q17 20 2 15Z" fill="#E9B87D" stroke="#211B16" stroke-width="3" stroke-linecap="round" stroke-linejoin="round" /><path d="M3 7Q10 0 18 4M-5 -3L2 7" fill="none" stroke="#9B6945" stroke-width="2" stroke-linecap="round" stroke-linejoin="round" /></g></g></g><g id="arm-right"><path d="M242 237Q277 262 273 300" fill="none" stroke="#211B16" stroke-width="24" stroke-linecap="round" stroke-linejoin="round" /><path d="M242 237Q277 262 273 300" fill="none" stroke="#476D78" stroke-width="16" stroke-linecap="round" stroke-linejoin="round" /><g transform="translate(278 312) scale(0.67)"><g id="palm" transform="translate(0 0) scale(1 1)"><path d="M-10 2Q-24 -2 -22 -10Q-20 -16 -14 -10L-5 -4L-10 -24Q-10 -31 -4 -29L4 -9L3 -30Q4 -36 9 -32L13 -9L18 -27Q21 -32 25 -27L23 -7L31 -18Q37 -20 36 -13L26 9Q17 20 2 15Z" fill="#E9B87D" stroke="#211B16" stroke-width="3" stroke-linecap="round" stroke-linejoin="round" /><path d="M3 7Q10 0 18 4M-5 -3L2 7" fill="none" stroke="#9B6945" stroke-width="2" stroke-linecap="round" stroke-linejoin="round" /></g></g></g><g id="head"><path d="M139 136L123 54L152 66L180 113Q201 102 220 112L259 51L268 99L253 146L267 174L245 177L242 194L224 192L199 216L175 198L160 203L146 183L127 182Z" fill="#BE7037" stroke="#211B16" stroke-width="4" stroke-linecap="round" stroke-linejoin="round" /><path d="M137 79L165 116L146 129ZM240 106L258 74L253 130Z" fill="#E9C9A0" stroke="#211B16" stroke-width="2" stroke-linecap="round" stroke-linejoin="round" /><path d="M141 154L177 164L199 182L224 165L257 151L245 182L223 200L199 215L172 196Z" fill="#FFF1CD" stroke="#211B16" stroke-width="3" stroke-linecap="round" stroke-linejoin="round" /><path d="M231 116Q259 163 232 191L207 212L232 206L249 187L263 176L260 150Z" fill="#8C4827" stroke="none" stroke-width="0" stroke-linecap="round" stroke-linejoin="round" /></g><g id="eyes"><ellipse cx="171" cy="141" rx="18" ry="25" fill="#FFFAE8" stroke="#211B16" stroke-width="3"/><ellipse cx="175" cy="146" rx="5.5" ry="9" fill="#211B16" stroke="none" stroke-width="1"/><circle cx="173" cy="142" r="2" fill="#FFFFFF" stroke="none" stroke-width="1"/><ellipse cx="215" cy="139" rx="19" ry="26" fill="#FFFAE8" stroke="#211B16" stroke-width="3"/><ellipse cx="219" cy="144" rx="5.5" ry="9" fill="#211B16" stroke="none" stroke-width="1"/><circle cx="217" cy="140" r="2" fill="#FFFFFF" stroke="none" stroke-width="1"/></g><g id="brows"><path d="M152 113Q169 104 186 113M201 111Q217 102 231 109" fill="none" stroke="#211B16" stroke-width="4" stroke-linecap="round" stroke-linejoin="round" /></g><g id="mouth"><ellipse cx="196" cy="172" rx="12" ry="6" fill="#211B16" stroke="none" stroke-width="1"/><path d="M174 186Q197 205 224 183" fill="none" stroke="#211B16" stroke-width="3" stroke-linecap="round" stroke-linejoin="round" /></g><g id="props"></g></svg>